<mxfile host="app.diagrams.net" modified="2023-07-10T02:08:53.455Z" agent="Mozilla/5.0 (Windows NT 10.0; Win64; x64) AppleWebKit/537.36 (KHTML, like Gecko) Chrome/114.0.0.0 Safari/537.36 Edg/114.0.1823.67" version="21.6.1" etag="tY5rqZ_Yg6_fsfUnIWCG" type="github">
  <diagram name="페이지-1" id="02UJXUz3Je4qyfzLRiZ3">
    <mxGraphModel>
      <root>
        <mxCell id="0" />
        <mxCell id="1" parent="0" />
      </root>
    </mxGraphModel>
  </diagram>
</mxfile>
